<?xml version="1.0" standalone="no"?>
<!DOCTYPE svg PUBLIC "-//W3C//DTD SVG 20010904//EN"
 "http://www.w3.org/TR/2001/REC-SVG-20010904/DTD/svg10.dtd">
<svg version="1.0" xmlns="http://www.w3.org/2000/svg"
 width="512.000000pt" height="512.000000pt" viewBox="0 0 512.000000 512.000000"
 preserveAspectRatio="xMidYMid meet">
<metadata>
Created by potrace 1.14, written by Peter Selinger 2001-2017
</metadata>
<g transform="translate(0.000000,512.000000) scale(0.100000,-0.100000)"
fill="#000000" stroke="none">
<path d="M1232 5103 c3 -16 -10 -19 -132 -23 l-134 -5 -1 -80 0 -80 -260 -2
c-143 0 -268 -2 -277 -2 -17 -1 -18 -18 -18 -205 l0 -204 -49 -17 c-28 -9 -76
-33 -108 -54 -61 -40 -153 -134 -153 -157 0 -8 -3 -14 -8 -14 -9 0 -38 -67
-53 -122 -15 -57 -28 -1168 -30 -2488 -1 -856 2 -1045 14 -1145 20 -156 22
-166 58 -238 39 -76 137 -173 213 -210 121 -59 14 -57 2167 -57 1281 0 1995 4
2030 10 75 14 159 41 159 51 0 5 7 9 15 9 8 0 25 10 38 23 12 12 24 22 27 22
5 0 45 42 84 86 7 9 22 35 32 58 10 22 21 41 26 41 4 0 7 3 7 8 -1 4 0 10 1
15 1 4 4 12 5 17 1 6 3 11 5 13 3 4 10 51 13 92 1 22 5 45 8 50 3 6 5 28 4 50
-1 22 0 45 4 50 12 20 14 726 6 1745 -3 344 -7 868 -9 1165 -2 297 -5 540 -6
540 -1 0 -4 11 -5 25 -6 41 -13 85 -16 88 -1 1 -2 5 -4 10 -10 37 -38 94 -52
110 -7 7 -13 18 -13 22 0 5 -23 34 -51 63 l-51 54 0 207 0 206 -259 0 c-200 0
-259 -3 -260 -12 -1 -7 -3 -42 -4 -78 -1 -36 -3 -70 -4 -75 0 -6 -58 -10 -151
-10 l-150 0 -1 25 c0 14 -1 118 -2 233 l-1 207 -1328 0 c-1260 0 -1329 -1
-1326 -17z"/>
</g>
</svg>
