<svg xmlns="http://www.w3.org/2000/svg" width="14" height="18" viewBox="0 0 14 18" fill="none">
<path fill-rule="evenodd" clip-rule="evenodd" d="M6.62967 0C9.96618 0 13.3027 1.68351 13.2594 6.87055C13.2594 10.1067 10.9537 12.9605 8.24628 16.3117C7.97768 16.6441 7.70528 16.9813 7.43068 17.3244C7.02228 17.8346 6.24028 17.8321 5.83413 17.3201C5.51867 16.9224 5.20532 16.5324 4.89711 16.1489C2.26073 12.8677 0 10.0542 0 6.87055C0 1.68351 3.76981 0 6.62967 0ZM9.40838 6.38921C9.40838 7.9234 8.16468 9.16711 6.63048 9.16711C5.09627 9.16711 3.85256 7.9234 3.85256 6.38921C3.85256 4.85502 5.09627 3.61132 6.63048 3.61132C8.16468 3.61132 9.40838 4.85502 9.40838 6.38921Z" fill="white"/>
</svg>
