<svg xmlns="http://www.w3.org/2000/svg" width="98" height="98" viewBox="0 0 98 98" fill="none">
<path d="M94.1997 70.7L82.0997 58.5C80.0997 56.5 77.3997 55.3 74.8997 55.3C72.1997 55.3 69.7997 56.4 67.6997 58.5L60.6997 65.5C60.3997 65.3 59.9997 65.1 59.6997 65C59.6997 65 59.5997 65 59.5997 64.9L59.4997 64.8C58.5997 64.2 57.5997 63.6 56.3997 63.1C50.2997 59.3 44.5997 54 38.7997 46.9C36.0997 43.5 34.1997 40.5 32.6997 37.2C34.2997 35.9 35.4997 34.6 36.3997 33.6L39.4997 30.5C41.8997 28.3 43.0997 25.8 43.0997 23.2C43.0997 20.5 41.8997 18 39.5997 15.6L30.0997 6.09999C29.1997 5.19999 28.2997 4.29999 27.2997 3.39999C25.2997 1.49999 22.7997 0.399994 20.1997 0.399994C17.2997 0.399994 14.8997 1.39999 12.6997 3.59999L5.39973 10.9C2.49973 13.6 0.799729 17 0.399729 21.2V21.3C0.199729 26.5 0.999724 31.3 3.19972 37.3C6.69972 46.7 11.9997 55.5 19.8997 65.2C30.1997 76.8 41.7997 85.8 54.6997 92L54.9997 92.1C58.7997 93.8 65.9997 97 73.9997 97.5H75.0997C80.3997 97.5 84.3997 95.8 87.6997 92.2C88.8997 90.8 90.1997 89.5 91.2997 88.3C92.1997 87.6 92.7997 86.9 93.3997 86.2L94.1997 85.4L94.3997 85.2C98.5997 80.6 98.5997 75 94.1997 70.7Z" fill="white"/>
</svg>
