<svg xmlns="http://www.w3.org/2000/svg" width="160" height="135" viewBox="0 0 160 135" fill="none">
<path d="M158.139 54.539L93.3139 1.12239C91.8121 -0.106896 89.7552 -0.336363 88.0084 0.483162C86.2617 1.31908 85.1516 3.07286 85.1516 5.02333L85.0047 33.1986C55.9469 34.1329 33.4516 43.5082 18.8737 60.6363C-4.87865 88.5165 0.426851 129.05 0.67172 130.738C1.04719 133.197 2.84289 135 5.30791 135C5.35689 135 5.42218 135 5.48748 135C8.0178 134.918 9.61761 132.951 9.82983 130.411C9.99308 128.559 14.9721 83.5011 85.021 83.5502L85.1679 112.365C85.1679 114.299 86.278 116.069 88.0411 116.905C89.7715 117.741 91.861 117.479 93.3466 116.249L158.172 62.3245C159.331 61.3739 160 59.9479 160 58.44C159.984 56.9157 159.298 55.4897 158.139 54.539Z" fill="white"/>
</svg>
