<svg xmlns="http://www.w3.org/2000/svg" width="44" height="40" viewBox="0 0 44 40" fill="none">
<path d="M43.1378 0.549881C42.3878 -0.0861186 41.2098 -0.177119 39.9918 0.311881H39.9898C38.7088 0.825881 3.72881 15.8299 2.30481 16.4429C2.04581 16.5329 -0.216191 17.3769 0.0168089 19.2569C0.224809 20.9519 2.04281 21.6539 2.26481 21.7349L11.1578 24.7799L13.0008 23.9979L36.0008 6.99788L19.0008 25.9979L16.0008 33.9979L14.4038 35.5379C14.7038 36.5029 15.1928 37.7709 16.0498 38.0319C16.8018 38.3219 17.5498 38.0569 18.0338 37.6769L23.4708 32.6339L32.2478 39.4789L32.4568 39.6039C33.0528 39.8679 33.6238 39.9999 34.1688 39.9999C34.5898 39.9999 34.9938 39.9209 35.3798 39.7629C36.6948 39.2229 37.2208 37.9699 37.2758 37.8279L43.8318 3.75088C44.2318 1.93088 43.6758 1.00488 43.1378 0.549881Z" fill="white"/>
</svg>
